<svg xmlns="http://www.w3.org/2000/svg" width="800" height="600" viewBox="0 0 800 600"><rect width="100%" height="100%" fill="#e3f2fd"/><path fill="#357abd" d="M171.58 303.22q.31 0 .56.24l1.54 1.67q-1.28 1.58-3.14 2.42t-4.47.84q-2.34 0-4.2-.8-1.87-.79-3.18-2.21-1.32-1.43-2.03-3.4-.7-1.97-.7-4.3 0-2.37.75-4.33.76-1.97 2.13-3.39t3.27-2.21 4.2-.79q2.29 0 4.07.75 1.78.76 3.02 1.98l-1.3 1.81q-.12.17-.3.3t-.5.13q-.22 0-.45-.12t-.51-.3q-.27-.18-.63-.4-.37-.22-.85-.4-.47-.18-1.1-.31-.64-.12-1.46-.12-1.41 0-2.58.5-1.16.5-2 1.45-.85.95-1.31 2.32t-.46 3.13q0 1.77.5 3.14.5 1.38 1.35 2.32.86.95 2.02 1.45t2.49.5q.8 0 1.45-.09.64-.09 1.18-.28.55-.19 1.03-.48.49-.3.97-.73.14-.14.3-.21.16-.08.34-.08m7.04-4.21h6.76q0-.7-.2-1.31-.19-.62-.58-1.08-.39-.47-1-.73-.6-.27-1.4-.27-1.55 0-2.44.88-.89.89-1.14 2.51m9.14 2.16h-9.21q.09 1.15.41 1.98t.84 1.38q.52.54 1.24.81.71.27 1.58.27t1.51-.21q.63-.2 1.1-.44.47-.25.82-.45.36-.21.69-.21.45 0 .67.34l1.03 1.3q-.6.7-1.33 1.17-.74.47-1.55.75-.8.29-1.64.4-.83.12-1.61.12-1.56 0-2.89-.52-1.33-.51-2.32-1.52t-1.55-2.49q-.57-1.49-.57-3.45 0-1.52.5-2.86.49-1.34 1.41-2.34.92-.99 2.25-1.57 1.32-.58 2.99-.58 1.41 0 2.6.45t2.04 1.31q.86.87 1.34 2.12.49 1.25.49 2.86 0 .82-.18 1.1-.17.28-.66.28m6.68-6.99.22 1.68q.7-1.33 1.65-2.09.96-.76 2.26-.76 1.03 0 1.66.45l-.23 2.68q-.08.26-.21.37-.14.11-.37.11-.22 0-.65-.07-.43-.08-.83-.08-.6 0-1.06.18-.47.17-.84.5-.37.32-.65.79-.28.46-.53 1.06v9.16h-3.58v-14.88h2.1q.55 0 .77.2.22.19.29.7m12.62 14.21q-1.95 0-2.98-1.09-1.04-1.1-1.04-3.03v-8.3h-1.52q-.29 0-.49-.19-.21-.19-.21-.57v-1.42l2.39-.39.76-4.06q.07-.29.27-.45.21-.16.53-.16h1.85v4.68h3.98v2.56h-3.98v8.06q0 .69.34 1.08.34.4.94.4.33 0 .56-.08.22-.08.39-.17l.3-.17q.13-.08.26-.08.16 0 .26.08t.21.24l1.08 1.74q-.79.66-1.8.99-1.02.33-2.1.33m5.94-15.11h3.6v14.88H213zm4.09-4.33q0 .46-.19.87-.19.4-.5.71-.31.3-.73.48-.42.19-.9.19-.46 0-.88-.19-.41-.18-.71-.48-.31-.31-.49-.71-.18-.41-.18-.87 0-.48.18-.9t.49-.73q.3-.3.71-.48.42-.18.88-.18.48 0 .9.18t.73.48q.31.31.5.73t.19.9m7.79 19.21h-3.58v-12.18l-1.29-.2q-.42-.09-.68-.3-.25-.21-.25-.6v-1.47h2.22v-1.1q0-1.27.38-2.29.38-1.01 1.1-1.73.72-.71 1.75-1.08 1.03-.38 2.32-.38 1.03 0 1.91.28l-.07 1.79q-.01.21-.11.33-.11.12-.27.19-.17.06-.39.09-.21.02-.46.02-.64 0-1.14.14-.5.13-.85.47t-.53.9-.18 1.39v.98h3.87v2.56h-3.75zm5.88-14.88h3.6v14.88h-3.6zm4.09-4.33q0 .46-.18.87-.19.4-.5.71-.32.3-.74.48-.42.19-.9.19-.46 0-.87-.19-.42-.18-.72-.48-.31-.31-.49-.71-.18-.41-.18-.87 0-.48.18-.9t.49-.73q.3-.3.72-.48.41-.18.87-.18.48 0 .9.18t.74.48q.31.31.5.73.18.42.18.9m14.76 6.17-.94 1.31q-.16.2-.31.32-.15.11-.44.11-.28 0-.54-.16-.26-.17-.62-.38t-.86-.38q-.5-.16-1.24-.16-.95 0-1.66.34t-1.18.98q-.47.63-.7 1.54t-.23 2.05q0 1.19.25 2.12t.73 1.56 1.16.96q.68.32 1.54.32.85 0 1.38-.21t.9-.46q.36-.26.63-.47.26-.21.6-.21.43 0 .65.34l1.03 1.3q-.59.7-1.29 1.17t-1.44.75q-.75.29-1.54.4-.79.12-1.57.12-1.38 0-2.6-.52-1.22-.51-2.13-1.5-.91-.98-1.44-2.41t-.53-3.26q0-1.64.47-3.04.47-1.39 1.38-2.42.92-1.02 2.27-1.6 1.34-.58 3.1-.58 1.67 0 2.92.54 1.25.53 2.25 1.53m10.24 9.2v-2.51q-1.55.07-2.61.27-1.06.19-1.69.5-.64.3-.92.71-.27.4-.27.88 0 .94.55 1.35.56.41 1.46.41 1.1 0 1.91-.4.8-.4 1.57-1.21m-7.57-7.82-.64-1.14q2.57-2.35 6.18-2.35 1.31 0 2.34.43 1.03.42 1.74 1.18.71.77 1.08 1.82.37 1.06.37 2.32v9.4h-1.63q-.51 0-.78-.15-.28-.15-.44-.62l-.31-1.07q-.57.51-1.11.89-.53.38-1.11.65-.58.26-1.24.39-.66.14-1.46.14-.94 0-1.74-.25-.8-.26-1.38-.76-.58-.51-.9-1.26-.32-.76-.32-1.76 0-.56.19-1.12t.62-1.07 1.11-.96 1.67-.78q1-.33 2.32-.54t3.01-.26v-.87q0-1.49-.64-2.21-.63-.72-1.84-.72-.87 0-1.44.21-.57.2-1.01.45-.43.26-.79.46-.35.2-.79.2-.38 0-.64-.19-.26-.2-.42-.46m19.39 11.89q-1.94 0-2.98-1.09-1.04-1.1-1.04-3.03v-8.3h-1.52q-.29 0-.49-.19-.21-.19-.21-.57v-1.42l2.4-.39.75-4.06q.07-.29.28-.45.2-.16.52-.16h1.85v4.68h3.98v2.56h-3.98v8.06q0 .69.35 1.08.34.4.93.4.33 0 .56-.08.22-.08.39-.17t.3-.17.26-.08q.16 0 .26.08t.22.24l1.07 1.74q-.78.66-1.8.99-1.01.33-2.1.33m8.66-9.38h6.75q0-.7-.19-1.31-.2-.62-.59-1.08-.39-.47-.99-.73-.61-.27-1.4-.27-1.55 0-2.45.88-.89.89-1.13 2.51m9.13 2.16h-9.21q.09 1.15.41 1.98t.84 1.38q.52.54 1.24.81t1.59.27 1.5-.21q.63-.2 1.1-.44.47-.25.83-.45.35-.21.69-.21.45 0 .66.34l1.03 1.3q-.59.7-1.33 1.17t-1.55.75q-.8.29-1.63.4-.84.12-1.62.12-1.55 0-2.89-.52-1.33-.51-2.32-1.52-.98-1.01-1.55-2.49-.56-1.49-.56-3.45 0-1.52.49-2.86t1.41-2.34q.92-.99 2.25-1.57t2.99-.58q1.41 0 2.6.45t2.04 1.31q.86.87 1.35 2.12.48 1.25.48 2.86 0 .82-.17 1.1-.18.28-.67.28m15.05-13.98v20.97h-3.91v-20.97zm7.7 20.97h-3.58v-14.88h2.19q.7 0 .91.66l.23 1.1q.4-.44.82-.8.43-.36.92-.62.48-.26 1.04-.42.56-.15 1.23-.15 1.4 0 2.31.76t1.36 2.02q.34-.73.87-1.26.52-.53 1.14-.87.62-.33 1.33-.49.7-.16 1.41-.16 1.23 0 2.19.38.96.37 1.61 1.1.65.72.99 1.77.34 1.04.34 2.39v9.47h-3.58v-9.47q0-1.42-.62-2.14t-1.83-.72q-.55 0-1.02.19t-.83.55q-.35.35-.55.89-.21.54-.21 1.23v9.47h-3.59v-9.47q0-1.49-.61-2.17-.6-.69-1.76-.69-.78 0-1.45.39-.68.38-1.26 1.05zm28.57-3.84v-2.51q-1.56.07-2.61.27-1.06.19-1.7.5-.64.3-.91.71-.28.4-.28.88 0 .94.56 1.35t1.46.41q1.1 0 1.9-.4.81-.4 1.58-1.21m-7.57-7.82-.64-1.14q2.57-2.35 6.18-2.35 1.3 0 2.33.43 1.03.42 1.74 1.18.71.77 1.08 1.82.37 1.06.37 2.32v9.4h-1.62q-.51 0-.79-.15-.27-.15-.43-.62l-.32-1.07q-.57.51-1.1.89-.54.38-1.12.65-.58.26-1.24.39-.66.14-1.46.14-.94 0-1.74-.25-.79-.26-1.37-.76-.58-.51-.9-1.26-.32-.76-.32-1.76 0-.56.19-1.12t.61-1.07q.43-.51 1.11-.96t1.68-.78q.99-.33 2.31-.54t3.02-.26v-.87q0-1.49-.64-2.21t-1.84-.72q-.87 0-1.45.21-.57.2-1 .45-.44.26-.79.46-.36.2-.79.2-.38 0-.64-.19-.26-.2-.42-.46m19.86 3.86q.67 0 1.16-.18.5-.18.82-.5.33-.32.49-.77.17-.45.17-.99 0-1.1-.66-1.74-.66-.65-1.98-.65t-1.98.65q-.66.64-.66 1.74 0 .53.17.97.17.45.49.78.33.33.83.51t1.15.18m4.05 8.47q0-.44-.26-.71-.26-.28-.71-.43t-1.05-.23q-.61-.07-1.28-.1-.68-.04-1.39-.07-.72-.03-1.4-.12-.6.34-.97.79t-.37 1.04q0 .39.2.73t.62.59q.43.25 1.11.38.68.14 1.67.14 1 0 1.73-.15.72-.15 1.19-.42t.69-.64.22-.8m-.71-15.04h4.27v1.33q0 .64-.76.79l-1.34.24q.31.77.31 1.69 0 1.1-.45 1.99-.44.89-1.22 1.51-.78.63-1.85.97t-2.3.34q-.43 0-.84-.04-.4-.05-.8-.12-.69.42-.69.94 0 .45.41.66t1.1.3q.68.09 1.55.11t1.78.09q.91.08 1.78.26t1.56.57q.68.39 1.09 1.07.41.67.41 1.73 0 .98-.48 1.91-.49.93-1.41 1.66-.92.72-2.26 1.16t-3.05.44q-1.68 0-2.93-.32-1.25-.33-2.08-.87-.82-.55-1.23-1.26-.4-.71-.4-1.47 0-1.05.63-1.75.63-.71 1.73-1.13-.59-.3-.94-.81t-.35-1.33q0-.34.12-.69.13-.36.37-.7.23-.35.6-.66.36-.32.85-.56-1.13-.61-1.77-1.63-.65-1.01-.65-2.37 0-1.11.44-2 .45-.89 1.24-1.52t1.87-.96q1.08-.34 2.35-.34.96 0 1.8.2.84.19 1.54.57m9.36 5.22h6.76q0-.7-.19-1.31-.2-.62-.59-1.08-.39-.47-.99-.73-.61-.27-1.4-.27-1.56 0-2.45.88-.89.89-1.14 2.51m9.14 2.16h-9.21q.09 1.15.41 1.98t.84 1.38q.52.54 1.24.81t1.59.27 1.5-.21q.63-.2 1.1-.44.47-.25.83-.45.35-.21.68-.21.45 0 .67.34l1.03 1.3q-.59.7-1.33 1.17t-1.55.75q-.8.29-1.64.4-.83.12-1.61.12-1.55 0-2.89-.52-1.33-.51-2.32-1.52-.98-1.01-1.55-2.49-.57-1.49-.57-3.45 0-1.52.5-2.86.49-1.34 1.41-2.34.92-.99 2.25-1.57t2.99-.58q1.41 0 2.6.45t2.04 1.31q.86.87 1.34 2.12.49 1.25.49 2.86 0 .82-.17 1.1-.18.28-.67.28m35.97-13.98h3.06l-6.51 20.97h-3.52l-4.58-14.33q-.19-.52-.35-1.27l-.17.68q-.09.32-.19.59l-4.63 14.33h-3.54l-6.49-20.97h3.26q.51 0 .85.24t.45.65l3.57 12.54q.12.46.23 1.01.11.54.22 1.14.12-.61.26-1.15.13-.54.29-1l4.12-12.54q.12-.34.46-.61.34-.28.83-.28h1.15q.5 0 .82.25t.48.64l4.1 12.54q.31.9.56 2.07.18-1.14.42-2.07l3.56-12.54q.09-.37.45-.63.35-.26.84-.26m11.66 5.86q1.65 0 3.01.54 1.36.53 2.32 1.52t1.49 2.41q.52 1.42.52 3.17 0 1.77-.52 3.19-.53 1.42-1.49 2.42t-2.32 1.54-3.01.54q-1.67 0-3.03-.54t-2.33-1.54q-.96-1-1.49-2.42t-.53-3.19q0-1.75.53-3.17t1.49-2.41q.97-.99 2.33-1.52 1.36-.54 3.03-.54m0 12.57q1.86 0 2.75-1.24.89-1.25.89-3.66t-.89-3.67-2.75-1.26q-1.88 0-2.79 1.27t-.91 3.66.91 3.65q.91 1.25 2.79 1.25m19.32-12.34h3.58v14.88h-2.19q-.71 0-.9-.65l-.25-1.19q-.91.93-2.01 1.5-1.11.57-2.6.57-1.22 0-2.15-.41-.94-.41-1.58-1.17-.63-.75-.96-1.79t-.33-2.28v-9.46h3.59v9.46q0 1.36.63 2.11.63.74 1.89.74.93 0 1.74-.41t1.54-1.14zm7.16-6.67h3.58v21.55h-3.58zm16.5 17.14v-6.67q-.61-.74-1.33-1.04-.71-.31-1.54-.31-.81 0-1.47.31-.65.3-1.11.92-.47.61-.71 1.56-.25.95-.25 2.24 0 1.31.21 2.22.21.9.6 1.48.39.57.96.82.57.26 1.26.26 1.12 0 1.9-.47.78-.46 1.48-1.32m0-17.14h3.58v21.55h-2.19q-.71 0-.9-.65l-.3-1.44q-.9 1.03-2.07 1.67t-2.72.64q-1.21 0-2.23-.51-1.01-.51-1.75-1.47-.73-.97-1.13-2.39t-.4-3.25q0-1.65.45-3.07t1.29-2.46q.84-1.05 2.02-1.64 1.17-.58 2.64-.58 1.24 0 2.13.39.88.39 1.58 1.06zm33.35 11.07q0 2.3-.77 4.23t-2.16 3.32-3.35 2.16-4.35.77h-7.99v-20.97h7.99q2.39 0 4.35.78 1.96.77 3.35 2.16 1.39 1.38 2.16 3.31t.77 4.24m-4 0q0-1.73-.46-3.1t-1.32-2.32-2.09-1.46q-1.22-.5-2.76-.5h-4.07v14.76h4.07q1.54 0 2.76-.51 1.23-.51 2.09-1.46t1.32-2.32.46-3.09m6.99-4.4h3.59v14.88h-3.59zm4.09-4.33q0 .46-.19.87-.19.4-.5.71-.31.3-.74.48-.42.19-.89.19t-.88-.19q-.41-.18-.72-.48-.3-.31-.48-.71-.19-.41-.19-.87 0-.48.19-.9.18-.42.48-.73.31-.3.72-.48t.88-.18.89.18q.43.18.74.48.31.31.5.73t.19.9m13.05 5.94-.82 1.29q-.14.23-.3.33-.16.09-.41.09-.26 0-.55-.14-.3-.15-.69-.33-.4-.18-.9-.32-.5-.15-1.18-.15-1.06 0-1.66.45t-.6 1.17q0 .48.31.81t.83.57q.51.25 1.17.44.65.2 1.32.43.68.23 1.33.53t1.17.76q.51.45.82 1.09.32.64.32 1.54 0 1.07-.39 1.98-.38.9-1.14 1.56-.75.66-1.86 1.03t-2.56.37q-.77 0-1.5-.14-.73-.13-1.41-.38-.67-.25-1.24-.58-.58-.33-1.01-.72l.82-1.37q.16-.24.38-.37.22-.14.55-.14.34 0 .63.19.3.19.69.41t.92.4q.53.19 1.34.19.64 0 1.1-.15t.75-.4q.3-.24.44-.57t.14-.67q0-.53-.32-.86-.31-.33-.82-.58-.52-.25-1.18-.44-.66-.2-1.35-.43-.68-.23-1.34-.54-.66-.32-1.18-.79-.51-.48-.82-1.18-.32-.69-.32-1.68 0-.91.37-1.74.36-.83 1.06-1.44.7-.62 1.76-.99 1.05-.37 2.42-.37 1.54 0 2.8.51t2.11 1.33m6.43 2.74v6.67q.61.74 1.33 1.05.72.3 1.56.3.81 0 1.46-.3.66-.31 1.11-.93.46-.62.71-1.57.24-.95.24-2.24 0-1.31-.21-2.22-.21-.9-.6-1.47-.39-.56-.95-.82-.56-.27-1.27-.27-1.11 0-1.9.48-.78.47-1.48 1.32m-.47-3.69.29 1.37q.91-1.03 2.07-1.66 1.16-.64 2.72-.64 1.22 0 2.23.5 1.01.51 1.74 1.48.73.96 1.13 2.37.4 1.42.4 3.25 0 1.66-.45 3.08t-1.28 2.47q-.84 1.04-2.02 1.63t-2.64.59q-1.25 0-2.14-.39-.88-.38-1.58-1.06v6.09h-3.58v-19.74h2.19q.7 0 .92.66m13.41-7.33h3.58v21.55h-3.58zm15.02 17.71v-2.51q-1.55.07-2.61.27-1.06.19-1.7.5-.63.3-.91.71-.28.4-.28.88 0 .94.56 1.35t1.46.41q1.1 0 1.91-.4.8-.4 1.57-1.21m-7.57-7.82-.64-1.14q2.57-2.35 6.18-2.35 1.3 0 2.33.43 1.03.42 1.74 1.18.71.77 1.08 1.82.37 1.06.37 2.32v9.4h-1.62q-.51 0-.78-.15-.28-.15-.44-.62l-.32-1.07q-.56.51-1.1.89t-1.12.65q-.58.26-1.23.39-.66.14-1.46.14-.94 0-1.74-.25-.8-.26-1.38-.76-.58-.51-.9-1.26-.32-.76-.32-1.76 0-.56.19-1.12t.62-1.07q.42-.51 1.11-.96.68-.45 1.67-.78t2.31-.54 3.02-.26v-.87q0-1.49-.64-2.21t-1.84-.72q-.87 0-1.44.21-.58.2-1.01.45-.44.26-.79.46-.36.2-.79.2-.38 0-.64-.19-.26-.2-.42-.46m25.07-3.22h2.87l-8.1 18.97q-.16.38-.42.57-.25.2-.77.2h-2.67l2.78-5.98-6.01-13.76h3.14q.42 0 .66.21.24.2.36.46l3.16 7.71q.16.4.27.79t.21.79l.26-.8q.13-.4.29-.79l2.99-7.7q.11-.29.38-.48t.6-.19m26.03-6.09h3.91v20.97h-3.91V299h-9.85v9.16h-3.91v-20.97h3.91v9.02h9.85zm10.84 11.82h6.76q0-.7-.19-1.31-.2-.62-.59-1.08-.39-.47-.99-.73-.61-.27-1.4-.27-1.56 0-2.45.88-.89.89-1.14 2.51m9.14 2.16h-9.21q.09 1.15.41 1.98t.84 1.38q.52.54 1.24.81t1.59.27 1.5-.21q.63-.2 1.1-.44.47-.25.83-.45.35-.21.68-.21.45 0 .67.34l1.03 1.3q-.59.7-1.33 1.17t-1.55.75q-.8.29-1.64.4-.83.12-1.61.12-1.55 0-2.89-.52-1.33-.51-2.32-1.52-.98-1.01-1.55-2.49-.56-1.49-.56-3.45 0-1.52.49-2.86t1.41-2.34q.92-.99 2.25-1.57t2.99-.58q1.41 0 2.6.45t2.04 1.31q.86.87 1.35 2.12.48 1.25.48 2.86 0 .82-.17 1.1-.18.28-.67.28m6.68-6.99.22 1.68q.7-1.33 1.65-2.09.96-.76 2.27-.76 1.03 0 1.65.45l-.23 2.68q-.07.26-.21.37t-.37.11q-.22 0-.65-.07-.43-.08-.83-.08-.6 0-1.06.18-.46.17-.83.5-.37.32-.66.79-.28.46-.53 1.06v9.16h-3.58v-14.88h2.11q.55 0 .76.2.22.19.29.7m10.49 4.83h6.75q0-.7-.19-1.31-.2-.62-.59-1.08-.39-.47-.99-.73-.6-.27-1.4-.27-1.55 0-2.44.88-.9.89-1.14 2.51m9.13 2.16H634q.08 1.15.4 1.98t.84 1.38q.52.54 1.24.81t1.59.27 1.5-.21q.63-.2 1.1-.44.47-.25.83-.45.35-.21.69-.21.45 0 .66.34l1.03 1.3q-.59.7-1.33 1.17t-1.54.75q-.81.29-1.64.4-.84.12-1.62.12-1.55 0-2.88-.52-1.34-.51-2.32-1.52-.99-1.01-1.56-2.49-.56-1.49-.56-3.45 0-1.52.49-2.86t1.42-2.34q.92-.99 2.24-1.57 1.33-.58 3-.58 1.4 0 2.59.45t2.05 1.31q.85.87 1.34 2.12.48 1.25.48 2.86 0 .82-.17 1.1t-.67.28"/></svg>